<svg xmlns="http://www.w3.org/2000/svg" viewBox="0 0 64 64" role="img" aria-label="Rocket favicon">
  <rect width="64" height="64" fill="#050505" />

  <g opacity="0.38">
    <circle cx="24" cy="21" r="8" fill="#fbbf24" />
    <circle cx="39" cy="29" r="15" fill="#f8fafc" />
    <circle cx="28" cy="45" r="16" fill="#ef4444" />
    <circle cx="53" cy="35" r="6" fill="#e2e8f0" />
  </g>

  <g shape-rendering="crispEdges">
    <rect x="20" y="16" width="2" height="2" fill="#fbbf24" />
    <rect x="22" y="14" width="2" height="2" fill="#fbbf24" />
    <rect x="24" y="12" width="2" height="2" fill="#fbbf24" />
    <rect x="26" y="14" width="2" height="2" fill="#fbbf24" />
    <rect x="28" y="16" width="2" height="2" fill="#fbbf24" />
    <rect x="22" y="16" width="2" height="2" fill="#fde68a" />
    <rect x="24" y="14" width="2" height="2" fill="#fde68a" />
    <rect x="24" y="16" width="2" height="2" fill="#fde68a" />
    <rect x="24" y="18" width="2" height="2" fill="#fbbf24" />

    <rect x="22" y="30" width="2" height="2" fill="#ef4444" />
    <rect x="24" y="28" width="2" height="2" fill="#ef4444" />
    <rect x="26" y="26" width="2" height="2" fill="#ef4444" />
    <rect x="28" y="24" width="2" height="2" fill="#ef4444" />
    <rect x="30" y="24" width="2" height="2" fill="#ef4444" />
    <rect x="22" y="32" width="2" height="2" fill="#ef4444" />
    <rect x="24" y="32" width="2" height="2" fill="#ef4444" />
    <rect x="24" y="34" width="2" height="2" fill="#ef4444" />

    <rect x="36" y="16" width="2" height="2" fill="#ef4444" />
    <rect x="38" y="16" width="2" height="2" fill="#ef4444" />
    <rect x="40" y="16" width="2" height="2" fill="#ef4444" />
    <rect x="42" y="16" width="2" height="2" fill="#ef4444" />
    <rect x="44" y="16" width="2" height="2" fill="#ef4444" />
    <rect x="38" y="18" width="2" height="2" fill="#ef4444" />
    <rect x="40" y="18" width="2" height="2" fill="#ef4444" />
    <rect x="42" y="18" width="2" height="2" fill="#ef4444" />
    <rect x="42" y="20" width="2" height="2" fill="#ef4444" />

    <rect x="30" y="18" width="2" height="2" fill="#e2e8f0" />
    <rect x="32" y="16" width="2" height="2" fill="#e2e8f0" />
    <rect x="34" y="14" width="2" height="2" fill="#cbd5e1" />
    <rect x="36" y="14" width="2" height="2" fill="#cbd5e1" />
    <rect x="38" y="14" width="2" height="2" fill="#cbd5e1" />
    <rect x="28" y="20" width="2" height="2" fill="#e2e8f0" />
    <rect x="30" y="20" width="2" height="2" fill="#e2e8f0" />
    <rect x="32" y="20" width="2" height="2" fill="#e2e8f0" />
    <rect x="34" y="20" width="2" height="2" fill="#cbd5e1" />
    <rect x="36" y="20" width="2" height="2" fill="#cbd5e1" />
    <rect x="38" y="20" width="2" height="2" fill="#cbd5e1" />
    <rect x="40" y="20" width="2" height="2" fill="#cbd5e1" />
    <rect x="26" y="22" width="2" height="2" fill="#e2e8f0" />
    <rect x="28" y="22" width="2" height="2" fill="#e2e8f0" />
    <rect x="30" y="22" width="2" height="2" fill="#e2e8f0" />
    <rect x="32" y="22" width="2" height="2" fill="#cbd5e1" />
    <rect x="34" y="22" width="2" height="2" fill="#cbd5e1" />
    <rect x="36" y="22" width="2" height="2" fill="#cbd5e1" />
    <rect x="38" y="22" width="2" height="2" fill="#cbd5e1" />
    <rect x="26" y="24" width="2" height="2" fill="#e2e8f0" />
    <rect x="28" y="24" width="2" height="2" fill="#e2e8f0" />
    <rect x="30" y="24" width="2" height="2" fill="#cbd5e1" />
    <rect x="32" y="24" width="2" height="2" fill="#cbd5e1" />
    <rect x="34" y="24" width="2" height="2" fill="#cbd5e1" />
    <rect x="36" y="24" width="2" height="2" fill="#cbd5e1" />
    <rect x="38" y="24" width="2" height="2" fill="#cbd5e1" />
    <rect x="26" y="26" width="2" height="2" fill="#e2e8f0" />
    <rect x="28" y="26" width="2" height="2" fill="#cbd5e1" />
    <rect x="30" y="26" width="2" height="2" fill="#cbd5e1" />
    <rect x="32" y="26" width="2" height="2" fill="#cbd5e1" />
    <rect x="34" y="26" width="2" height="2" fill="#cbd5e1" />
    <rect x="36" y="26" width="2" height="2" fill="#cbd5e1" />
    <rect x="28" y="28" width="2" height="2" fill="#cbd5e1" />
    <rect x="30" y="28" width="2" height="2" fill="#cbd5e1" />
    <rect x="32" y="28" width="2" height="2" fill="#cbd5e1" />
    <rect x="34" y="28" width="2" height="2" fill="#cbd5e1" />
    <rect x="30" y="30" width="2" height="2" fill="#cbd5e1" />
    <rect x="32" y="30" width="2" height="2" fill="#cbd5e1" />

    <rect x="34" y="18" width="2" height="2" fill="#2563eb" />
    <rect x="36" y="18" width="2" height="2" fill="#3b82f6" />
    <rect x="38" y="18" width="2" height="2" fill="#3b82f6" />
    <rect x="34" y="20" width="2" height="2" fill="#2563eb" />
    <rect x="36" y="20" width="2" height="2" fill="#2563eb" />
    <rect x="38" y="20" width="2" height="2" fill="#3b82f6" />
    <rect x="34" y="22" width="2" height="2" fill="#2563eb" />
    <rect x="36" y="22" width="2" height="2" fill="#2563eb" />
    <rect x="36" y="16" width="2" height="2" fill="#dbeafe" />
    <rect x="32" y="20" width="2" height="2" fill="#dbeafe" />

    <rect x="24" y="36" width="2" height="2" fill="#ef4444" />
    <rect x="24" y="38" width="2" height="2" fill="#ef4444" />
    <rect x="22" y="40" width="2" height="2" fill="#ef4444" />
    <rect x="20" y="42" width="2" height="2" fill="#ef4444" />
    <rect x="20" y="44" width="2" height="2" fill="#ef4444" />
    <rect x="22" y="44" width="2" height="2" fill="#ef4444" />
    <rect x="18" y="46" width="2" height="2" fill="#ef4444" />
    <rect x="20" y="46" width="2" height="2" fill="#ef4444" />
    <rect x="22" y="46" width="2" height="2" fill="#ef4444" />
    <rect x="18" y="48" width="2" height="2" fill="#ef4444" />
    <rect x="20" y="48" width="2" height="2" fill="#ef4444" />
    <rect x="22" y="48" width="2" height="2" fill="#ef4444" />
    <rect x="24" y="46" width="2" height="2" fill="#fbbf24" />
    <rect x="24" y="44" width="2" height="2" fill="#fbbf24" />
    <rect x="26" y="42" width="2" height="2" fill="#fbbf24" />
    <rect x="26" y="44" width="2" height="2" fill="#fde68a" />
    <rect x="28" y="44" width="2" height="2" fill="#fde68a" />

    <rect x="30" y="34" width="2" height="2" fill="#ef4444" />
    <rect x="32" y="36" width="2" height="2" fill="#ef4444" />
    <rect x="34" y="38" width="2" height="2" fill="#ef4444" />
    <rect x="34" y="40" width="2" height="2" fill="#ef4444" />
    <rect x="36" y="42" width="2" height="2" fill="#ef4444" />
    <rect x="36" y="44" width="2" height="2" fill="#ef4444" />

    <rect x="52" y="30" width="2" height="2" fill="#f8fafc" />
    <rect x="54" y="32" width="2" height="2" fill="#f8fafc" />
    <rect x="52" y="34" width="2" height="2" fill="#f8fafc" />
    <rect x="50" y="32" width="2" height="2" fill="#f8fafc" />
  </g>
</svg>
