<?xml version="1.0" encoding="UTF-8"?>
<svg version="1.1" xmlns="http://www.w3.org/2000/svg" width="480" height="480">
<path d="M0 0 C2.60275056 -0.00571569 5.20549861 -0.01268454 7.8082428 -0.02079773 C14.09582049 -0.03783976 20.38329762 -0.03885629 26.67089238 -0.03358483 C31.79177775 -0.02951354 36.91263382 -0.0310214 42.03351784 -0.03633308 C43.13432125 -0.03745572 43.13432125 -0.03745572 44.25736311 -0.03860103 C45.74910516 -0.0401328 47.24084719 -0.04167115 48.73258922 -0.043216 C62.66731415 -0.05688881 76.60198266 -0.05154078 90.53670625 -0.04003078 C103.22532629 -0.03010886 115.91380029 -0.04303038 128.60239782 -0.06696498 C141.69662048 -0.09147457 154.79077546 -0.10093463 167.88502055 -0.09431225 C175.21012515 -0.09084555 182.53511772 -0.09288073 189.8602047 -0.11056328 C196.75598118 -0.12700592 203.65147742 -0.1219211 210.54724693 -0.10325813 C213.05718945 -0.09961091 215.56715308 -0.1025655 218.07707596 -0.11314392 C251.27480035 -0.24222152 288.01880497 3.91294758 313.5246582 27.40405273 C314.87624023 28.61834961 314.87624023 28.61834961 316.25512695 29.85717773 C336.9703434 49.40091298 346.8190818 79.35612048 347.80377007 107.40871429 C347.9572967 114.47819448 347.94228173 121.54716118 347.92871094 128.61791992 C347.93442399 131.32377204 347.94129327 134.02959966 347.94950867 136.73544312 C347.96657833 143.28163779 347.96756142 149.82773599 347.96229576 156.37394711 C347.95823006 161.70323908 347.95972586 167.03250286 347.96504402 172.36179352 C347.96579244 173.12455322 347.96654087 173.88731292 347.96731197 174.67318656 C347.96884368 176.22347886 347.97038203 177.77377116 347.97192694 179.32406345 C347.98560952 193.81569891 347.98024457 208.30728016 347.96874172 222.79891434 C347.95881688 236.00700812 347.97174462 249.21496165 347.99567591 262.4230338 C348.02015961 276.04037383 348.02965195 289.65764879 348.02302319 303.27501035 C348.01955106 310.89794828 348.02162872 318.52077856 348.03927422 326.14369965 C348.054113 332.63368261 348.05448157 339.12348213 348.0372033 345.61346194 C348.02878483 348.91363583 348.02854715 352.21321985 348.04185486 355.51341629 C348.11386491 374.86548172 346.82248996 393.87053679 340.3371582 412.27905273 C340.04164063 413.13362061 339.74612305 413.98818848 339.44165039 414.86865234 C334.38906492 428.87298763 327.14454562 440.04134207 316.5246582 450.40405273 C315.72286133 451.21487305 314.92106445 452.02569336 314.0949707 452.86108398 C302.30319323 464.20825345 287.12928901 470.75101239 271.5246582 475.02905273 C270.83283447 475.22329834 270.14101074 475.41754395 269.42822266 475.61767578 C251.46754606 480.28147602 233.50400219 480.84508755 215.04931641 480.80810547 C212.44656585 480.81382116 209.8438178 480.82079001 207.24107361 480.8289032 C200.95349591 480.84594523 194.66601878 480.84696176 188.37842403 480.84169029 C183.25753865 480.83761901 178.13668258 480.83912687 173.01579857 480.84443855 C172.28192963 480.84518697 171.54806069 480.8459354 170.79195329 480.8467065 C169.30021125 480.84823827 167.80846921 480.84977662 166.31672718 480.85132147 C152.38200226 480.86499428 138.44733375 480.85964625 124.51261016 480.84813625 C111.82399012 480.83821433 99.13551612 480.85113585 86.44691858 480.87507045 C73.35269593 480.89958004 60.25854094 480.90904009 47.16429585 480.90241772 C39.83919126 480.89895102 32.51419869 480.9009862 25.18911171 480.91866875 C18.29333522 480.93511139 11.39783899 480.93002657 4.50206947 480.9113636 C1.99212695 480.90771638 -0.51783667 480.91067097 -3.02775955 480.92124939 C-36.22548394 481.05032699 -72.96948857 476.89515789 -98.4753418 453.40405273 C-99.37639648 452.59452148 -100.27745117 451.78499023 -101.20581055 450.95092773 C-121.921027 431.40719249 -131.7697654 401.45198499 -132.75445366 373.39939117 C-132.90798029 366.32991099 -132.89296532 359.26094429 -132.87939453 352.19018555 C-132.88510759 349.48433343 -132.89197687 346.77850581 -132.90019226 344.07266235 C-132.91726192 337.52646768 -132.91824501 330.98036948 -132.91297936 324.43415835 C-132.90891365 319.10486639 -132.91040945 313.77560261 -132.91572762 308.44631195 C-132.91647604 307.68355225 -132.91722446 306.92079255 -132.91799556 306.13491891 C-132.91952728 304.58462661 -132.92106562 303.03433431 -132.92261053 301.48404202 C-132.93629311 286.99240656 -132.93092817 272.5008253 -132.91942532 258.00919113 C-132.90950047 244.80109735 -132.92242821 231.59314382 -132.94635951 218.38507167 C-132.9708432 204.76773164 -132.98033554 191.15045668 -132.97370678 177.53309512 C-132.97023465 169.91015719 -132.97231231 162.28732691 -132.98995781 154.66440582 C-133.00479659 148.17442286 -133.00516516 141.68462334 -132.9878869 135.19464353 C-132.97946842 131.89446964 -132.97923075 128.59488562 -132.99253845 125.29468918 C-133.06454851 105.94262375 -131.77317356 86.93756868 -125.2878418 68.52905273 C-124.99232422 67.67448486 -124.69680664 66.81991699 -124.39233398 65.93945312 C-119.33974851 51.93511784 -112.09522922 40.7667634 -101.4753418 30.40405273 C-100.67354492 29.59323242 -99.87174805 28.78241211 -99.0456543 27.94702148 C-87.25387682 16.59985202 -72.07997261 10.05709308 -56.4753418 5.77905273 C-55.78351807 5.58480713 -55.09169434 5.39056152 -54.37890625 5.19042969 C-36.41822965 0.52662945 -18.45468578 -0.03698208 0 0 Z " fill="#FEFEFE" transform="translate(132.475341796875,-0.404052734375)"/>
<path d="M0 0 C-1.30500967 12.08972373 -3.35454688 23.97862267 -5.59838867 35.92532349 C-6.40451889 40.21818404 -7.19995089 44.51300759 -7.99612427 48.807724 C-8.40224345 50.99781227 -8.80887975 53.18780471 -9.21603394 55.37770081 C-11.02232698 65.09591047 -12.79727662 74.81956559 -14.54727173 84.54806519 C-14.84611727 86.20784143 -15.14588284 87.86745231 -15.44662476 89.52688599 C-15.86236333 91.8209343 -16.27532877 94.11546467 -16.6875 96.41015625 C-16.91824219 97.69027588 -17.14898437 98.97039551 -17.38671875 100.28930664 C-18.03098098 104.18745222 -18.53491564 108.07693738 -19 112 C-23 112 -23 112 -25.296875 110.05859375 C-26.10640625 109.19363281 -26.9159375 108.32867187 -27.75 107.4375 C-31.98547975 103.02787424 -36.33889053 98.94992988 -41 95 C-42.33354912 93.85441781 -43.66689367 92.70859743 -45 91.5625 C-45.99 90.716875 -46.98 89.87125 -48 89 C-52.04442233 90.5723047 -54.5052613 93.45159973 -57.3125 96.625 C-57.98442383 97.36943359 -57.98442383 97.36943359 -58.66992188 98.12890625 C-61.2792675 101.02981949 -63.84281694 103.96920744 -66.40234375 106.9140625 C-69.92670406 110.94809065 -73.57039298 114.85781065 -77.25 118.75 C-81.85710332 123.64504727 -86.45545691 128.54673997 -91 133.5 C-91.804375 134.3765625 -92.60875 135.253125 -93.4375 136.15625 C-95.43250052 138.37021399 -97.39743596 140.60193656 -99.3515625 142.8515625 C-102.93005704 146.95260627 -106.63489763 150.92162067 -110.375 154.875 C-115.26111906 160.06276091 -120.09910078 165.28316493 -124.84765625 170.59765625 C-132.10362513 178.69642369 -139.51378031 186.65460333 -146.96557617 194.57299805 C-149.84553459 197.64436603 -152.6703218 200.74928267 -155.4296875 203.9296875 C-159.13199612 208.18734241 -162.9900801 212.28433085 -166.875 216.375 C-171.92100135 221.71145186 -176.92030581 227.07666174 -181.80859375 232.55859375 C-184.45007407 235.50141941 -187.12809771 238.40885796 -189.8125 241.3125 C-190.31434814 241.85559814 -190.81619629 242.39869629 -191.33325195 242.95825195 C-193.97133266 245.81130915 -196.61329433 248.66072202 -199.2578125 251.5078125 C-200.05674927 252.36959106 -200.05674927 252.36959106 -200.87182617 253.2487793 C-201.88111058 254.33738373 -202.89159993 255.42487287 -203.90356445 256.51098633 C-207.05731886 259.91462988 -210.05514063 263.41379195 -213 267 C-216.13879381 265.6124182 -218.22254795 264.00476592 -220.609375 261.55078125 C-221.61871094 260.52500977 -221.61871094 260.52500977 -222.6484375 259.47851562 C-223.34195313 258.76373047 -224.03546875 258.04894531 -224.75 257.3125 C-228.68018403 253.28144622 -232.5864823 249.2944968 -236.8671875 245.6328125 C-242.97070778 240.38657028 -248.48548551 234.52022191 -254.10546875 228.76757812 C-255.39517578 227.46143555 -255.39517578 227.46143555 -256.7109375 226.12890625 C-257.48743652 225.33556885 -258.26393555 224.54223145 -259.06396484 223.72485352 C-260.81672808 221.77826306 -260.81672808 221.77826306 -263 222 C-264.35097374 223.51151546 -265.62927345 225.08813313 -266.875 226.6875 C-270.46977839 231.18677102 -274.19499116 235.47875404 -278.125 239.6875 C-281.91924793 243.75458341 -285.663748 247.84523982 -289.30078125 252.0546875 C-291.29406428 254.3366529 -293.33493027 256.57228574 -295.375 258.8125 C-298.57652433 262.35160002 -301.63146063 265.97103106 -304.625 269.6875 C-307.12973231 272.78591453 -309.6339111 275.73296947 -312.5 278.5 C-315.28505422 281.18967565 -317.70498616 284.03968272 -320.125 287.0625 C-324.23134868 292.1726228 -328.59875855 296.96639101 -333.13134766 301.70141602 C-333.90357666 302.51630493 -333.90357666 302.51630493 -334.69140625 303.34765625 C-335.2017894 303.87767242 -335.71217255 304.4076886 -336.23802185 304.95376587 C-338.08414498 306.99010903 -338.08414498 306.99010903 -339.55345154 309.50984192 C-342.2526324 313.65714302 -344.29154198 316.52840757 -349.1865387 317.8795929 C-353.0749795 318.15599419 -356.89234787 318.12730756 -360.78125 317.9765625 C-362.20466108 317.95788092 -363.62813703 317.9436606 -365.05163574 317.9336853 C-368.77536604 317.89573319 -372.49511476 317.79773416 -376.21728516 317.68664551 C-380.02451715 317.58382988 -383.83240111 317.5385681 -387.640625 317.48828125 C-395.09555379 317.38144465 -402.54721642 317.21108498 -410 317 C-409.05776991 315.89592516 -408.11484287 314.79244508 -407.17163086 313.68920898 C-406.64661484 313.0746434 -406.12159882 312.46007782 -405.58067322 311.82688904 C-403.29570505 309.18599954 -400.9337246 306.62645113 -398.5625 304.0625 C-395.50161727 300.74242962 -392.45719255 297.41324152 -389.5 294 C-386.09255081 290.06832786 -382.56870327 286.24638756 -379.04467773 282.41967773 C-376.51259884 279.66526572 -374.00964732 276.89257501 -371.5625 274.0625 C-367.98197688 269.93244815 -364.26420238 265.9339593 -360.54980469 261.92480469 C-355.98400817 256.99351602 -351.48445753 252.00533826 -347 247 C-345.45847359 245.2915401 -343.91680647 243.58320716 -342.375 241.875 C-339.78609747 239.00091715 -337.21944454 236.11180399 -334.6875 233.1875 C-331.01760894 228.97011937 -327.21014304 224.88386015 -323.40966797 220.78466797 C-320.11282282 217.22266657 -316.87640018 213.61874791 -313.69921875 209.94921875 C-309.4253204 205.04651697 -305.03080529 200.24887834 -300.671875 195.421875 C-297.27655062 191.6569915 -293.88941658 187.88806449 -290.5625 184.0625 C-287.75177475 180.83440488 -284.884201 177.66261557 -282 174.5 C-275.87012634 167.77571435 -269.90926747 160.91816679 -264 154 C-259.08016955 158.04519393 -254.58452795 162.37480557 -250.11108398 166.90844727 C-247.5725148 169.46774299 -245.0055677 171.92667821 -242.25 174.25 C-237.41426998 178.35637405 -233.03797397 182.93970601 -228.62988281 187.49511719 C-224.39180657 191.81379076 -219.93992808 195.50683469 -215 199 C-203.21686078 186.20765004 -203.21686078 186.20765004 -191.6875 173.1875 C-188.01558017 168.96778794 -184.20627187 164.87896889 -180.40307617 160.77807617 C-177.72628745 157.88670849 -175.0770391 154.98128052 -172.5 152 C-167.97689941 146.77428184 -163.24286265 141.74066819 -158.54638672 136.67138672 C-152.0812425 129.68364164 -145.6708818 122.64755401 -139.3125 115.5625 C-136.72384964 112.69399555 -134.11410892 109.84527019 -131.5 107 C-125.94186487 100.94900633 -120.43258838 94.8550608 -114.96875 88.71875 C-109.57438708 82.68028405 -104.05596837 76.76592768 -98.49169922 70.88427734 C-96.65081919 68.93221304 -94.82423564 66.96761688 -93 65 C-92.33387695 64.29649414 -91.66775391 63.59298828 -90.98144531 62.86816406 C-90.01996582 61.82354004 -90.01996582 61.82354004 -89.0390625 60.7578125 C-88.16435303 59.82026123 -88.16435303 59.82026123 -87.27197266 58.86376953 C-85.62419595 56.82542413 -85.62419595 56.82542413 -86 53 C-87.29714999 51.39982681 -87.29714999 51.39982681 -89.1875 50 C-93.14659706 46.7279019 -96.97018367 43.3507911 -100.75 39.875 C-101.30453857 39.37226562 -101.85907715 38.86953125 -102.43041992 38.3515625 C-105.60699857 35.43454117 -108.39188301 32.45638805 -111 29 C-105.25680027 27.02027936 -99.50850969 25.25919426 -93.625 23.75 C-92.82537842 23.54165527 -92.02575684 23.33331055 -91.2019043 23.11865234 C-86.3400328 21.85400634 -81.47303771 20.60969279 -76.60546875 19.3671875 C-65.68590985 16.57104409 -54.80621753 13.70922298 -44 10.5 C-35.14130709 7.87417955 -26.24964917 5.4080828 -17.3125 3.0625 C-16.15943359 2.75570312 -15.00636719 2.44890625 -13.81835938 2.1328125 C-12.74005859 1.85308594 -11.66175781 1.57335937 -10.55078125 1.28515625 C-9.12245972 0.91209351 -9.12245972 0.91209351 -7.6652832 0.53149414 C-5.03370669 0.00672158 -2.67515267 -0.09979876 0 0 Z " fill="#0369F8" transform="translate(447,81)"/>
<path d="M0 0 C-1.30500967 12.08972373 -3.35454688 23.97862267 -5.59838867 35.92532349 C-6.40451889 40.21818404 -7.19995089 44.51300759 -7.99612427 48.807724 C-8.40224345 50.99781227 -8.80887975 53.18780471 -9.21603394 55.37770081 C-11.02232698 65.09591047 -12.79727662 74.81956559 -14.54727173 84.54806519 C-14.84611727 86.20784143 -15.14588284 87.86745231 -15.44662476 89.52688599 C-15.86236333 91.8209343 -16.27532877 94.11546467 -16.6875 96.41015625 C-16.91824219 97.69027588 -17.14898437 98.97039551 -17.38671875 100.28930664 C-18.03098098 104.18745222 -18.53491564 108.07693738 -19 112 C-23 112 -23 112 -25.296875 110.05859375 C-26.10640625 109.19363281 -26.9159375 108.32867187 -27.75 107.4375 C-31.98547975 103.02787424 -36.33889053 98.94992988 -41 95 C-42.33354912 93.85441781 -43.66689367 92.70859743 -45 91.5625 C-45.99 90.716875 -46.98 89.87125 -48 89 C-52.04442233 90.5723047 -54.5052613 93.45159973 -57.3125 96.625 C-57.98442383 97.36943359 -57.98442383 97.36943359 -58.66992188 98.12890625 C-61.2792675 101.02981949 -63.84281694 103.96920744 -66.40234375 106.9140625 C-69.92670406 110.94809065 -73.57039298 114.85781065 -77.25 118.75 C-81.85710332 123.64504727 -86.45545691 128.54673997 -91 133.5 C-91.804375 134.3765625 -92.60875 135.253125 -93.4375 136.15625 C-95.43250052 138.37021399 -97.39743596 140.60193656 -99.3515625 142.8515625 C-102.93005704 146.95260627 -106.63489763 150.92162067 -110.375 154.875 C-115.26111906 160.06276091 -120.09910078 165.28316493 -124.84765625 170.59765625 C-132.10362513 178.69642369 -139.51378031 186.65460333 -146.96557617 194.57299805 C-149.84553459 197.64436603 -152.6703218 200.74928267 -155.4296875 203.9296875 C-159.13199612 208.18734241 -162.9900801 212.28433085 -166.875 216.375 C-171.92100135 221.71145186 -176.92030581 227.07666174 -181.80859375 232.55859375 C-184.45007407 235.50141941 -187.12809771 238.40885796 -189.8125 241.3125 C-190.31434814 241.85559814 -190.81619629 242.39869629 -191.33325195 242.95825195 C-193.97133266 245.81130915 -196.61329433 248.66072202 -199.2578125 251.5078125 C-200.05674927 252.36959106 -200.05674927 252.36959106 -200.87182617 253.2487793 C-201.88111058 254.33738373 -202.89159993 255.42487287 -203.90356445 256.51098633 C-207.05731886 259.91462988 -210.05514063 263.41379195 -213 267 C-216.13879381 265.6124182 -218.22254795 264.00476592 -220.609375 261.55078125 C-221.61871094 260.52500977 -221.61871094 260.52500977 -222.6484375 259.47851562 C-223.34195313 258.76373047 -224.03546875 258.04894531 -224.75 257.3125 C-228.68018403 253.28144622 -232.5864823 249.2944968 -236.8671875 245.6328125 C-242.97070778 240.38657028 -248.48548551 234.52022191 -254.10546875 228.76757812 C-255.39517578 227.46143555 -255.39517578 227.46143555 -256.7109375 226.12890625 C-257.48743652 225.33556885 -258.26393555 224.54223145 -259.06396484 223.72485352 C-260.81672808 221.77826306 -260.81672808 221.77826306 -263 222 C-264.35097374 223.51151546 -265.62927345 225.08813313 -266.875 226.6875 C-270.46977839 231.18677102 -274.19499116 235.47875404 -278.125 239.6875 C-281.91924793 243.75458341 -285.663748 247.84523982 -289.30078125 252.0546875 C-291.29406428 254.3366529 -293.33493027 256.57228574 -295.375 258.8125 C-298.57652433 262.35160002 -301.63146063 265.97103106 -304.625 269.6875 C-307.12973231 272.78591453 -309.6339111 275.73296947 -312.5 278.5 C-315.28505422 281.18967565 -317.70498616 284.03968272 -320.125 287.0625 C-324.23134868 292.1726228 -328.59875855 296.96639101 -333.13134766 301.70141602 C-333.90357666 302.51630493 -333.90357666 302.51630493 -334.69140625 303.34765625 C-335.2017894 303.87767242 -335.71217255 304.4076886 -336.23802185 304.95376587 C-338.08414498 306.99010903 -338.08414498 306.99010903 -339.55345154 309.50984192 C-342.2526324 313.65714302 -344.29154198 316.52840757 -349.1865387 317.8795929 C-353.0749795 318.15599419 -356.89234787 318.12730756 -360.78125 317.9765625 C-362.20466108 317.95788092 -363.62813703 317.9436606 -365.05163574 317.9336853 C-368.77536604 317.89573319 -372.49511476 317.79773416 -376.21728516 317.68664551 C-380.02451715 317.58382988 -383.83240111 317.5385681 -387.640625 317.48828125 C-395.09555379 317.38144465 -402.54721642 317.21108498 -410 317 C-408.35 315.02 -406.7 313.04 -405 311 C-404.67 312.32 -404.34 313.64 -404 315 C-399.68895621 315.29290044 -395.38048713 315.46879375 -391.0625 315.625 C-389.85013672 315.70878906 -388.63777344 315.79257812 -387.38867188 315.87890625 C-380.34590813 316.08623673 -380.34590813 316.08623673 -374.27099609 312.90527344 C-371.98849061 310.36915623 -369.99447677 307.76565411 -368 305 C-366.51841286 303.31694405 -365.02050681 301.64797962 -363.5 300 C-362.76007813 299.17757813 -362.02015625 298.35515625 -361.2578125 297.5078125 C-359.73291756 295.81407106 -358.20684598 294.12138831 -356.6796875 292.4296875 C-353.30087292 288.68435744 -349.93104035 284.93481793 -346.625 281.125 C-343.17283922 277.15902924 -339.61249119 273.29482354 -336.05175781 269.42675781 C-332.89302035 265.9897558 -329.79361664 262.50978679 -326.734375 258.984375 C-322.44320048 254.0746528 -318.04197892 249.26125182 -313.671875 244.421875 C-312.91390625 243.58140625 -312.1559375 242.7409375 -311.375 241.875 C-310.63894531 241.0603125 -309.90289062 240.245625 -309.14453125 239.40625 C-306.51036929 236.45061473 -303.94937761 233.43589851 -301.41015625 230.3984375 C-300 229 -300 229 -298 229 C-297.80792969 228.32582031 -297.61585938 227.65164063 -297.41796875 226.95703125 C-295.43206012 222.81561849 -292.49070475 219.96096877 -289.3125 216.6875 C-288.03169223 215.34326668 -286.75173351 213.99822381 -285.47265625 212.65234375 C-284.5602417 211.69690674 -284.5602417 211.69690674 -283.62939453 210.72216797 C-281.24926449 208.20651958 -278.98265609 205.60288684 -276.7265625 202.9765625 C-273.56842848 199.36114211 -270.29297593 195.84948145 -267.0390625 192.3203125 C-264.98422672 190.18053118 -264.98422672 190.18053118 -264 188 C-261.0782168 188.3130482 -260.14850796 188.81966891 -258.25 191.125 C-257.5075 192.07375 -256.765 193.0225 -256 194 C-254.06568632 195.77770622 -252.07193137 197.47369262 -250.07421875 199.1796875 C-248.12996026 200.88594825 -246.30976314 202.65296485 -244.5 204.5 C-242.20984863 206.83123032 -239.86544399 209.00968564 -237.375 211.125 C-232.30737284 215.48713396 -227.65518723 220.26415728 -222.953125 225.01171875 C-222.44330078 225.52524902 -221.93347656 226.0387793 -221.40820312 226.56787109 C-220.18909135 227.80769594 -218.9909573 229.06808243 -217.796875 230.33203125 C-216.00137342 232.22934836 -216.00137342 232.22934836 -213 233 C-212.75636719 232.42765625 -212.51273438 231.8553125 -212.26171875 231.265625 C-210.77482702 228.59566462 -209.01916092 226.86170993 -206.8125 224.75 C-203.37097498 221.38495332 -200.14392936 217.94747012 -197.01171875 214.296875 C-193.92295611 210.77028776 -190.72258886 207.34785249 -187.52612305 203.91894531 C-184.83129809 201.01869333 -182.18926883 198.08341398 -179.59375 195.09375 C-175.39457213 190.27161717 -171.00208659 185.64137801 -166.60546875 181 C-162.8880085 177.05933821 -159.27517287 173.05052056 -155.72363281 168.95996094 C-152.92850095 165.78158719 -150.02658906 162.70592593 -147.125 159.625 C-137.32038748 149.24075305 -137.32038748 149.24075305 -128.0625 138.375 C-127.381875 137.59125 -126.70125 136.8075 -126 136 C-125.34 136 -124.68 136 -124 136 C-123.7525 135.443125 -123.505 134.88625 -123.25 134.3125 C-121.27476381 130.65831305 -118.72545624 127.72417225 -115.79296875 124.796875 C-112.49512534 121.49441922 -109.30635641 118.10172211 -106.125 114.6875 C-105.49787109 114.01525391 -104.87074219 113.34300781 -104.22460938 112.65039062 C-100.72906886 108.8924112 -97.30164271 105.09281729 -93.953125 101.203125 C-90.51460642 97.32447604 -86.94847399 93.56357905 -83.40551758 89.78051758 C-75.6200577 81.46589861 -67.93616145 73.06303412 -60.33203125 64.58203125 C-58.60923741 62.67454929 -56.87856086 60.77665505 -55.13671875 58.88671875 C-54.646875 58.35498047 -54.15703125 57.82324219 -53.65234375 57.27539062 C-52.26315355 55.76950845 -50.87187087 54.2655574 -49.48046875 52.76171875 C-46.97611822 50.04325583 -46.97611822 50.04325583 -44.80078125 47.14453125 C-44.20652344 46.43683594 -43.61226563 45.72914062 -43 45 C-42.34 45 -41.68 45 -41 45 C-40.6596875 44.195625 -40.6596875 44.195625 -40.3125 43.375 C-38.54429911 40.17539839 -36.46329797 37.70962777 -34 35 C-33.34 35 -32.68 35 -32 35 C-31.74605469 34.41734375 -31.49210937 33.8346875 -31.23046875 33.234375 C-29.86679667 30.75811967 -28.35774797 29.19479374 -26.3125 27.25 C-22.97171976 23.99934873 -19.89968448 20.62873922 -16.875 17.0859375 C-13.99261377 13.87928281 -10.85801251 10.93785821 -7.72265625 7.98046875 C-5.67185538 6.06021914 -5.67185538 6.06021914 -6 3 C-9.63 3.33 -13.26 3.66 -17 4 C-14.12584808 2.56292404 -12.07120137 1.62568589 -9.0625 0.875 C-8.41410156 0.70742187 -7.76570313 0.53984375 -7.09765625 0.3671875 C-4.70112887 -0.05231636 -2.42890131 -0.02353053 0 0 Z " fill="#0258C2" transform="translate(447,81)"/>
<path d="M0 0 C0.33 0 0.66 0 1 0 C0.45298808 9.72684762 -0.89305102 19.22681907 -2.5625 28.8125 C-2.79936757 30.19847562 -3.03569847 31.58454308 -3.27148438 32.97070312 C-3.8424172 36.31473823 -4.41867113 39.65775933 -5 43 C-9 43 -9 43 -11.40234375 40.98828125 C-12.23894531 40.10527344 -13.07554687 39.22226563 -13.9375 38.3125 C-14.77152344 37.44238281 -15.60554688 36.57226562 -16.46484375 35.67578125 C-17.30144531 34.79277344 -18.13804687 33.90976563 -19 33 C-20.66204989 31.32872931 -22.32735968 29.66067152 -24 28 C-19.70388327 29.38388185 -17.37615482 31.34808568 -14.3125 34.625 C-12.91119933 36.11815063 -11.48102881 37.58589391 -10 39 C-9.34 39 -8.68 39 -8 39 C-5.22171407 30.76366299 -4.12094805 22.38690841 -3.09057617 13.79443359 C-2.49279336 8.96556858 -1.78275373 4.56782823 0 0 Z " fill="#2360AB" transform="translate(433,150)"/>
<path d="M0 0 C0 3.53939678 -0.44476743 3.86119877 -2.75 6.375 C-3.38679688 7.07625 -4.02359375 7.7775 -4.6796875 8.5 C-5.44539063 9.325 -6.21109375 10.15 -7 11 C-7.94042749 12.02053549 -8.88051116 13.04138788 -9.8203125 14.0625 C-11.86897067 16.28574467 -13.92183841 18.50501819 -15.9765625 20.72265625 C-20.03100479 25.10657043 -24.02040354 29.5480777 -28 34 C-28.99 33.67 -29.98 33.34 -31 33 C-30.28714844 32.29875 -29.57429687 31.5975 -28.83984375 30.875 C-24.06801813 26.15749463 -19.39304035 21.43161609 -15.03515625 16.32421875 C-10.16251911 10.75949879 -5.04825984 5.40505415 0 0 Z " fill="#DCECF4" transform="translate(278,299)"/>
<path d="M0 0 C0.33 1.32 0.66 2.64 1 4 C20.14 4.33 39.28 4.66 59 5 C59 5.33 59 5.66 59 6 C37.88 6 16.76 6 -5 6 C-3.35 4.02 -1.7 2.04 0 0 Z " fill="#336FB9" transform="translate(42,392)"/>
<path d="M0 0 C2.11159197 2.86430457 1.97439153 4.23730716 1.58447266 7.85058594 C1.29131566 9.39783032 0.98361296 10.94236536 0.6640625 12.484375 C0.50586029 13.29996887 0.34765808 14.11556274 0.18466187 14.95587158 C-0.32277082 17.55654587 -0.84860859 20.1531037 -1.375 22.75 C-1.72257387 24.51408304 -2.06894258 26.27840399 -2.4140625 28.04296875 C-3.26208941 32.36486268 -4.12663935 36.68315728 -5 41 C-5.33 41 -5.66 41 -6 41 C-6.17808353 36.0136611 -5.87017898 32.05108912 -4.50390625 27.20703125 C-3.90713765 24.59327731 -3.69892147 22.04778117 -3.5 19.375 C-3.18333738 15.26404062 -2.38507536 11.89552445 -1 8 C-0.56170213 5.33612295 -0.27801601 2.68748806 0 0 Z " fill="#2A64AB" transform="translate(440,109)"/>
<path d="M0 0 C-0.28250662 2.58463502 -0.5756226 5.16731135 -0.875 7.75 C-0.99294922 8.84441406 -0.99294922 8.84441406 -1.11328125 9.9609375 C-1.55136176 13.66777257 -1.9986215 16.80452172 -4 20 C-4.10477512 14.21408489 -3.99250545 8.70690634 -3 3 C-3.99 3.66 -4.98 4.32 -6 5 C-6 4.34 -6 3.68 -6 3 C-9.63 3.33 -13.26 3.66 -17 4 C-14.12584808 2.56292404 -12.07120137 1.62568589 -9.0625 0.875 C-8.41410156 0.70742187 -7.76570313 0.53984375 -7.09765625 0.3671875 C-4.7002683 -0.052467 -2.42908793 -0.05914301 0 0 Z " fill="#3167AC" transform="translate(447,81)"/>
<path d="M0 0 C0.33 0.66 0.66 1.32 1 2 C-4.34439389 9.38730213 -10.46998827 15.68253838 -17 22 C-17.66 21.67 -18.32 21.34 -19 21 C-18.60208252 20.57702637 -18.20416504 20.15405273 -17.79418945 19.71826172 C-15.96521593 17.77213825 -14.13884621 15.82358916 -12.3125 13.875 C-11.68666016 13.20984375 -11.06082031 12.5446875 -10.41601562 11.859375 C-6.80763861 8.00540164 -3.33465583 4.09340161 0 0 Z " fill="#E0F0F7" transform="translate(352,218)"/>
<path d="M0 0 C0 5.53687641 -4.61258196 9.84161047 -8 14 C-9.92713807 15.89085305 -11.80941111 17.41182305 -14 19 C-14.66 18.67 -15.32 18.34 -16 18 C-15.26394531 17.20335937 -14.52789062 16.40671875 -13.76953125 15.5859375 C-12.78378001 14.5156933 -11.79810712 13.44537693 -10.8125 12.375 C-10.32974609 11.85292969 -9.84699219 11.33085937 -9.34960938 10.79296875 C-6.11982129 7.28138707 -3.02821458 3.68700349 0 0 Z " fill="#1C6DDC" transform="translate(96,332)"/>
<path d="M0 0 C1.9375 0.375 1.9375 0.375 4 1 C4.33 1.66 4.66 2.32 5 3 C4.25274658 3.09079834 3.50549316 3.18159668 2.7355957 3.27514648 C-0.47864021 4.12682577 -1.55899892 5.15645968 -3.76953125 7.59765625 C-4.76049805 8.67563477 -4.76049805 8.67563477 -5.77148438 9.77539062 C-6.44501953 10.53013672 -7.11855469 11.28488281 -7.8125 12.0625 C-8.50537109 12.82111328 -9.19824219 13.57972656 -9.91210938 14.36132812 C-11.61818104 16.23212395 -13.31344052 18.11162456 -15 20 C-15.66 19.67 -16.32 19.34 -17 19 C-16.25556641 18.27296875 -16.25556641 18.27296875 -15.49609375 17.53125 C-9.93462983 12.04365752 -4.3471895 6.52078425 0 0 Z " fill="#0159D3" transform="translate(183,269)"/>
<path d="M0 0 C5.72588744 1.77205461 8.66875468 5.65201787 12.59765625 9.98046875 C14.77448173 12.29348173 14.77448173 12.29348173 17.30859375 11.80078125 C18.14583984 11.40439453 18.14583984 11.40439453 19 11 C18.67 12.65 18.34 14.3 18 16 C14.4567789 14.4975457 12.22928476 12.43747735 9.5625 9.6875 C8.78132813 8.88828125 8.00015625 8.0890625 7.1953125 7.265625 C6.47085937 6.51796875 5.74640625 5.7703125 5 5 C3.9815161 3.97682263 2.96125415 2.95540413 1.9375 1.9375 C1.298125 1.298125 0.65875 0.65875 0 0 Z " fill="#346DAF" transform="translate(409,178)"/>
<path d="M0 0 C1.32 0.66 2.64 1.32 4 2 C3.360625 2.474375 2.72125 2.94875 2.0625 3.4375 C-2.22656786 7.02631188 -6.08660872 11.00987556 -10 15 C-10.66 14.67 -11.32 14.34 -12 14 C-11.30132812 13.24074219 -10.60265625 12.48148437 -9.8828125 11.69921875 C-8.96343578 10.69540947 -8.04417079 9.69149785 -7.125 8.6875 C-6.66480469 8.18798828 -6.20460937 7.68847656 -5.73046875 7.17382812 C-3.61393392 4.85790957 -1.74473617 2.61710426 0 0 Z " fill="#D8EAF3" transform="translate(184,302)"/>
<path d="M0 0 C0 0.66 0 1.32 0 2 C-1.66848694 2.47671055 -3.33731531 2.95225732 -5.0078125 3.421875 C-6.82950079 3.9505218 -8.63474528 4.53500755 -10.4375 5.125 C-14.50263065 6.12345314 -17.83140698 6.14626642 -22 6 C-18.64153509 3.7610234 -15.41108679 2.87127846 -11.5625 1.875 C-10.89412109 1.69324219 -10.22574219 1.51148437 -9.53710938 1.32421875 C-6.2051237 0.44581618 -3.47463228 0 0 0 Z " fill="#2E77D7" transform="translate(386,97)"/>
<path d="M0 0 C0.33 0.99 0.66 1.98 1 3 C0.3503125 3.5878125 0.3503125 3.5878125 -0.3125 4.1875 C-2.13512023 5.99104472 -2.13512023 5.99104472 -3.375 8.5625 C-5.29492093 11.44238139 -6.73894457 12.03049703 -10 13 C-7.02480663 8.30834891 -3.68606635 4.15296809 0 0 Z " fill="#2A75DB" transform="translate(172,247)"/>
<path d="M0 0 C0.33 0.66 0.66 1.32 1 2 C-2.86364295 6.48717034 -6.74790208 10.87675353 -11 15 C-11.66 14.67 -12.32 14.34 -13 14 C-12.48050781 13.49210937 -11.96101563 12.98421875 -11.42578125 12.4609375 C-7.3775629 8.46509906 -3.55349109 4.44186386 0 0 Z " fill="#015BD4" transform="translate(94,369)"/>
<path d="M0 0 C0.33 0 0.66 0 1 0 C1.41640288 7.2484945 0.44166784 13.16914355 -2 20 C-3.31052767 15.69577494 -2.45785552 12.0629466 -1.5625 7.75 C-1.41490234 7.00492188 -1.26730469 6.25984375 -1.11523438 5.4921875 C-0.7511306 3.65992335 -0.37658591 1.82973947 0 0 Z " fill="#CDE5F0" transform="translate(436,141)"/>
<path d="M0 0 C-0.33 0.99 -0.66 1.98 -1 3 C-6.28 3.66 -11.56 4.32 -17 5 C-13.86768478 2.91178985 -11.56941553 2.24877798 -7.9375 1.375 C-6.87402344 1.11460938 -5.81054688 0.85421875 -4.71484375 0.5859375 C-2 0 -2 0 0 0 Z " fill="#387DD6" transform="translate(429,85)"/>
<path d="M0 0 C0.33 0.99 0.66 1.98 1 3 C-1.97 5.97 -4.94 8.94 -8 12 C-8.66 11.67 -9.32 11.34 -10 11 C-6.7 7.37 -3.4 3.74 0 0 Z " fill="#2671D7" transform="translate(53,380)"/>
<path d="M0 0 C-1.32 1.32 -2.64 2.64 -4 4 C-4 3.34 -4 2.68 -4 2 C-7.63 2.33 -11.26 2.66 -15 3 C-12.11145103 1.55572551 -9.97113653 0.58990589 -6.9375 -0.1875 C-6.26589844 -0.36667969 -5.59429687 -0.54585938 -4.90234375 -0.73046875 C-3 -1 -3 -1 0 0 Z " fill="#3179D6" transform="translate(445,82)"/>
<path d="M0 0 C0.33 0.99 0.66 1.98 1 3 C-1.64 5.64 -4.28 8.28 -7 11 C-7.66 10.67 -8.32 10.34 -9 10 C-6.03 6.7 -3.06 3.4 0 0 Z " fill="#DBECF5" transform="translate(364,205)"/>
<path d="M0 0 C0.66 0.33 1.32 0.66 2 1 C0.90653119 2.34212062 -0.2001575 3.67347975 -1.3125 5 C-2.23482422 6.11375 -2.23482422 6.11375 -3.17578125 7.25 C-5 9 -5 9 -8 9 C-5.36 6.03 -2.72 3.06 0 0 Z " fill="#D9ECF5" transform="translate(397,169)"/>
<path d="M0 0 C0 3.60573896 -0.81707462 4.41336566 -3 7.1875 C-3.556875 7.90292969 -4.11375 8.61835938 -4.6875 9.35546875 C-5.120625 9.89816406 -5.55375 10.44085938 -6 11 C-6.99 10.67 -7.98 10.34 -9 10 C-6.03 6.7 -3.06 3.4 0 0 Z " fill="#2B74D4" transform="translate(96,332)"/>
<path d="M0 0 C0.33 0.99 0.66 1.98 1 3 C-1.31 5.31 -3.62 7.62 -6 10 C-6.66 9.67 -7.32 9.34 -8 9 C-5.36 6.03 -2.72 3.06 0 0 Z " fill="#DFF0F6" transform="translate(157,333)"/>
<path d="M0 0 C1.32 1.32 2.64 2.64 4 4 C-0.625 6.125 -0.625 6.125 -4 5 C-2.68 3.35 -1.36 1.7 0 0 Z " fill="#2E78D9" transform="translate(183,235)"/>
<path d="M0 0 C0.33 1.32 0.66 2.64 1 4 C-0.65 5.32 -2.3 6.64 -4 8 C-4.66 7.67 -5.32 7.34 -6 7 C-4.02 4.69 -2.04 2.38 0 0 Z " fill="#2773DD" transform="translate(306,198)"/>
<path d="M0 0 C0.33 0.66 0.66 1.32 1 2 C-1.31 4.64 -3.62 7.28 -6 10 C-6.66 9.67 -7.32 9.34 -8 9 C-5.36 6.03 -2.72 3.06 0 0 Z " fill="#D7EAF3" transform="translate(118,377)"/>
<path d="M0 0 C1 2 1 2 0.375 4 C-1.39265071 6.57112831 -3.07589059 7.07659703 -6 8 C-4.26440562 4.942048 -2.61527381 2.36620011 0 0 Z " fill="#3078D7" transform="translate(337,164)"/>
<path d="M0 0 C0 0.66 0 1.32 0 2 C-4.49656104 4.24828052 -8.07872966 4.16682272 -13 4 C-13 3.67 -13 3.34 -13 3 C-11.2092015 2.49689942 -9.41733089 1.99761372 -7.625 1.5 C-6.62726563 1.2215625 -5.62953125 0.943125 -4.6015625 0.65625 C-2 0 -2 0 0 0 Z " fill="#377DD5" transform="translate(410,90)"/>
<path d="M0 0 C0.33 0.66 0.66 1.32 1 2 C0.67 2.99 0.34 3.98 0 5 C-0.66 5 -1.32 5 -2 5 C-2.33 5.99 -2.66 6.98 -3 8 C-3.99 7.67 -4.98 7.34 -6 7 C-4.02 4.69 -2.04 2.38 0 0 Z " fill="#3077D8" transform="translate(157,264)"/>
<path d="M0 0 C0.33 0.99 0.66 1.98 1 3 C-0.98 4.98 -2.96 6.96 -5 9 C-5.66 8.67 -6.32 8.34 -7 8 C-4.69 5.36 -2.38 2.72 0 0 Z " fill="#D4E9F3" transform="translate(330,242)"/>
<path d="M0 0 C0.6875 1.8125 0.6875 1.8125 1 4 C-0.4375 5.75 -0.4375 5.75 -2 7 C-2.99 6.67 -3.98 6.34 -5 6 C-3.35 4.02 -1.7 2.04 0 0 Z " fill="#2A76DF" transform="translate(326,176)"/>
</svg>
