<?xml version="1.0" encoding="UTF-8"?>
<svg version="1.1" xmlns="http://www.w3.org/2000/svg" width="480" height="480">
<path d="M0 0 C2.60275056 -0.00571569 5.20549861 -0.01268454 7.8082428 -0.02079773 C14.09582049 -0.03783976 20.38329762 -0.03885629 26.67089238 -0.03358483 C31.79177775 -0.02951354 36.91263382 -0.0310214 42.03351784 -0.03633308 C43.13432125 -0.03745572 43.13432125 -0.03745572 44.25736311 -0.03860103 C45.74910516 -0.0401328 47.24084719 -0.04167115 48.73258922 -0.043216 C62.66731415 -0.05688881 76.60198266 -0.05154078 90.53670625 -0.04003078 C103.22532629 -0.03010886 115.91380029 -0.04303038 128.60239782 -0.06696498 C141.69662048 -0.09147457 154.79077546 -0.10093463 167.88502055 -0.09431225 C175.21012515 -0.09084555 182.53511772 -0.09288073 189.8602047 -0.11056328 C196.75598118 -0.12700592 203.65147742 -0.1219211 210.54724693 -0.10325813 C213.05718945 -0.09961091 215.56715308 -0.1025655 218.07707596 -0.11314392 C251.27480035 -0.24222152 288.01880497 3.91294758 313.5246582 27.40405273 C314.87624023 28.61834961 314.87624023 28.61834961 316.25512695 29.85717773 C336.9703434 49.40091298 346.8190818 79.35612048 347.80377007 107.40871429 C347.9572967 114.47819448 347.94228173 121.54716118 347.92871094 128.61791992 C347.93442399 131.32377204 347.94129327 134.02959966 347.94950867 136.73544312 C347.96657833 143.28163779 347.96756142 149.82773599 347.96229576 156.37394711 C347.95823006 161.70323908 347.95972586 167.03250286 347.96504402 172.36179352 C347.96579244 173.12455322 347.96654087 173.88731292 347.96731197 174.67318656 C347.96884368 176.22347886 347.97038203 177.77377116 347.97192694 179.32406345 C347.98560952 193.81569891 347.98024457 208.30728016 347.96874172 222.79891434 C347.95881688 236.00700812 347.97174462 249.21496165 347.99567591 262.4230338 C348.02015961 276.04037383 348.02965195 289.65764879 348.02302319 303.27501035 C348.01955106 310.89794828 348.02162872 318.52077856 348.03927422 326.14369965 C348.054113 332.63368261 348.05448157 339.12348213 348.0372033 345.61346194 C348.02878483 348.91363583 348.02854715 352.21321985 348.04185486 355.51341629 C348.11386491 374.86548172 346.82248996 393.87053679 340.3371582 412.27905273 C340.04164063 413.13362061 339.74612305 413.98818848 339.44165039 414.86865234 C334.38906492 428.87298763 327.14454562 440.04134207 316.5246582 450.40405273 C315.72286133 451.21487305 314.92106445 452.02569336 314.0949707 452.86108398 C302.30319323 464.20825345 287.12928901 470.75101239 271.5246582 475.02905273 C270.83283447 475.22329834 270.14101074 475.41754395 269.42822266 475.61767578 C251.46754606 480.28147602 233.50400219 480.84508755 215.04931641 480.80810547 C212.44656585 480.81382116 209.8438178 480.82079001 207.24107361 480.8289032 C200.95349591 480.84594523 194.66601878 480.84696176 188.37842403 480.84169029 C183.25753865 480.83761901 178.13668258 480.83912687 173.01579857 480.84443855 C172.28192963 480.84518697 171.54806069 480.8459354 170.79195329 480.8467065 C169.30021125 480.84823827 167.80846921 480.84977662 166.31672718 480.85132147 C152.38200226 480.86499428 138.44733375 480.85964625 124.51261016 480.84813625 C111.82399012 480.83821433 99.13551612 480.85113585 86.44691858 480.87507045 C73.35269593 480.89958004 60.25854094 480.90904009 47.16429585 480.90241772 C39.83919126 480.89895102 32.51419869 480.9009862 25.18911171 480.91866875 C18.29333522 480.93511139 11.39783899 480.93002657 4.50206947 480.9113636 C1.99212695 480.90771638 -0.51783667 480.91067097 -3.02775955 480.92124939 C-36.22548394 481.05032699 -72.96948857 476.89515789 -98.4753418 453.40405273 C-99.37639648 452.59452148 -100.27745117 451.78499023 -101.20581055 450.95092773 C-121.921027 431.40719249 -131.7697654 401.45198499 -132.75445366 373.39939117 C-132.90798029 366.32991099 -132.89296532 359.26094429 -132.87939453 352.19018555 C-132.88510759 349.48433343 -132.89197687 346.77850581 -132.90019226 344.07266235 C-132.91726192 337.52646768 -132.91824501 330.98036948 -132.91297936 324.43415835 C-132.90891365 319.10486639 -132.91040945 313.77560261 -132.91572762 308.44631195 C-132.91647604 307.68355225 -132.91722446 306.92079255 -132.91799556 306.13491891 C-132.91952728 304.58462661 -132.92106562 303.03433431 -132.92261053 301.48404202 C-132.93629311 286.99240656 -132.93092817 272.5008253 -132.91942532 258.00919113 C-132.90950047 244.80109735 -132.92242821 231.59314382 -132.94635951 218.38507167 C-132.9708432 204.76773164 -132.98033554 191.15045668 -132.97370678 177.53309512 C-132.97023465 169.91015719 -132.97231231 162.28732691 -132.98995781 154.66440582 C-133.00479659 148.17442286 -133.00516516 141.68462334 -132.9878869 135.19464353 C-132.97946842 131.89446964 -132.97923075 128.59488562 -132.99253845 125.29468918 C-133.06454851 105.94262375 -131.77317356 86.93756868 -125.2878418 68.52905273 C-124.99232422 67.67448486 -124.69680664 66.81991699 -124.39233398 65.93945312 C-119.33974851 51.93511784 -112.09522922 40.7667634 -101.4753418 30.40405273 C-100.67354492 29.59323242 -99.87174805 28.78241211 -99.0456543 27.94702148 C-87.25387682 16.59985202 -72.07997261 10.05709308 -56.4753418 5.77905273 C-55.78351807 5.58480713 -55.09169434 5.39056152 -54.37890625 5.19042969 C-36.41822965 0.52662945 -18.45468578 -0.03698208 0 0 Z " fill="#FEFEFE" transform="translate(132.475341796875,-0.404052734375)"/>
<path d="M0 0 C-0.10973648 0.58769165 -0.21947296 1.1753833 -0.33253479 1.78088379 C-6.06454954 32.49077925 -11.70740308 63.21107848 -17 94 C-20.94136813 94 -21.66173572 92.78817655 -24.5 90.125 C-25.37398438 89.31417969 -26.24796875 88.50335938 -27.1484375 87.66796875 C-28.08945312 86.78753906 -29.03046875 85.90710938 -30 85 C-32.03568901 83.13922276 -34.08066075 81.28876277 -36.125 79.4375 C-37.75022984 77.95858587 -39.37531544 76.47951313 -41 75 C-45.2041085 76.59776095 -47.7681618 79.72974391 -50.6875 83 C-51.21859375 83.58523437 -51.7496875 84.17046875 -52.296875 84.7734375 C-53.87064588 86.5102738 -55.4363501 88.25405266 -57 90 C-57.77988281 90.86625 -58.55976563 91.7325 -59.36328125 92.625 C-60.79585281 94.21732817 -62.226826 95.81109569 -63.65625 97.40625 C-66.92735239 101.02626997 -70.244134 104.60331266 -73.55859375 108.18359375 C-76.56410722 111.43383097 -79.54559609 114.7030565 -82.5 118 C-87.42557438 123.49356855 -92.43521878 128.90774576 -97.44726562 134.32226562 C-99.9876648 137.06717492 -102.52532337 139.81461219 -105.0625 142.5625 C-105.55983643 143.10108643 -106.05717285 143.63967285 -106.56958008 144.19458008 C-110.33982014 148.279673 -114.09793507 152.37573863 -117.85131836 156.47631836 C-121.26441269 160.20320409 -124.69323664 163.91530832 -128.125 167.625 C-131.57036568 171.35010359 -134.99293868 175.09210179 -138.375 178.875 C-142.74737931 183.75432184 -147.21925091 188.53690633 -151.69555664 193.32055664 C-159.57070483 201.74006501 -167.35467132 210.23888373 -175.02734375 218.84375 C-176.96194032 220.95839813 -178.95769408 222.9896765 -181 225 C-184.93214301 223.41060574 -187.33020346 220.83657498 -190.25 217.8125 C-193.33632529 214.62359454 -196.43198804 211.58873177 -199.796875 208.6953125 C-204.41831556 204.69953208 -208.70615458 200.4047163 -213 196.0625 C-213.77472656 195.28326172 -214.54945313 194.50402344 -215.34765625 193.70117188 C-217.23410757 191.8030758 -219.11816245 189.90266851 -221 188 C-224.97121344 189.81520116 -227.45491968 192.39398025 -230.3125 195.625 C-230.80250488 196.16987061 -231.29250977 196.71474121 -231.79736328 197.27612305 C-233.20486958 198.84499801 -234.60389014 200.42098442 -236 202 C-236.59941406 202.67417969 -237.19882813 203.34835937 -237.81640625 204.04296875 C-240.02294536 206.54813722 -242.20369618 209.07510577 -244.38183594 211.60498047 C-246.00326058 213.48777672 -247.62616188 215.36928486 -249.25 217.25 C-249.81154785 217.9004126 -250.3730957 218.5508252 -250.95166016 219.22094727 C-254.48381726 223.29592943 -258.08029522 227.29876219 -261.75 231.25 C-265.07613047 234.84413522 -268.25428891 238.48832813 -271.3125 242.3125 C-275.65917019 247.72221453 -280.35179774 252.75824082 -285.12817383 257.78637695 C-285.70075928 258.39054443 -286.27334473 258.99471191 -286.86328125 259.6171875 C-287.62572144 260.41552002 -287.62572144 260.41552002 -288.40356445 261.22998047 C-290.15137477 263.02745054 -290.15137477 263.02745054 -291.44702148 265.6809082 C-295.67346016 269.520149 -300.48924581 268.61282151 -305.984375 268.48828125 C-307.15510559 268.48120651 -308.32583618 268.47413177 -309.53204346 268.46684265 C-313.27201173 268.43884981 -317.01048407 268.37609721 -320.75 268.3125 C-323.28513463 268.28742368 -325.82029273 268.26460936 -328.35546875 268.24414062 C-334.57082307 268.18900684 -340.78530467 268.10532977 -347 268 C-345.50894899 264.88532084 -343.95090041 262.66973373 -341.55078125 260.171875 C-340.52500977 259.09486328 -340.52500977 259.09486328 -339.47851562 257.99609375 C-338.76373047 257.25488281 -338.04894531 256.51367188 -337.3125 255.75 C-332.62588493 250.85924137 -328.01354983 245.93865985 -323.57885742 240.81738281 C-321.42694632 238.34037242 -319.21578987 235.91987578 -317 233.5 C-314.17422616 230.40268033 -311.36781221 227.2959585 -308.625 224.125 C-304.05465979 218.8680359 -299.28868084 213.7896589 -294.55517578 208.68017578 C-288.5811017 202.22592495 -282.62291977 195.76404366 -276.8671875 189.11328125 C-274.96131367 186.95621484 -273.01247769 184.84227379 -271.05566406 182.73144531 C-267.14032845 178.50608995 -263.34285496 174.25801613 -259.75 169.75 C-255.27199565 164.1807852 -250.41616434 159.00816621 -245.49121094 153.83300781 C-241.76900905 149.91749602 -238.15184911 145.93490757 -234.61132812 141.85424805 C-232.45782739 139.37609077 -230.26248197 136.93690311 -228.0625 134.5 C-227.29035156 133.6440625 -226.51820313 132.788125 -225.72265625 131.90625 C-225.15417969 131.2771875 -224.58570313 130.648125 -224 130 C-219.08177445 134.04387434 -214.58738177 138.37178973 -210.11547852 142.90405273 C-206.9485961 146.09685337 -203.67877906 149.06621515 -200.2421875 151.9609375 C-198.32810801 153.70161606 -196.54524059 155.48405435 -194.7578125 157.3515625 C-194.18015137 157.95049316 -193.60249023 158.54942383 -193.00732422 159.16650391 C-191.84952383 160.37448959 -190.7023532 161.59276768 -189.56689453 162.82177734 C-187.80230969 164.71411068 -187.80230969 164.71411068 -185 167 C-181.02890172 166.55834922 -179.54291293 164.73599625 -177 161.75 C-176.21882812 160.85023438 -175.43765625 159.95046875 -174.6328125 159.0234375 C-174.21161133 158.53584961 -173.79041016 158.04826172 -173.35644531 157.54589844 C-170.92024254 154.76943409 -168.39153748 152.07847129 -165.875 149.375 C-162.15091246 145.35714903 -158.48905424 141.30106275 -154.90625 137.15625 C-151.79802331 133.64038703 -148.59129923 130.21563086 -145.40014648 126.77514648 C-142.74405476 123.9062682 -140.11610356 121.02366124 -137.5625 118.0625 C-133.7440849 113.64364616 -129.73952241 109.4000257 -125.75585938 105.13085938 C-122.97660909 102.14692322 -120.22171203 99.15476437 -117.5625 96.0625 C-114.15194976 92.10489408 -110.57308664 88.31015031 -107 84.5 C-102.86509542 80.0904721 -98.77556444 75.66451665 -94.83203125 71.08203125 C-91.78600107 67.6203381 -88.63345172 64.25680307 -85.49853516 60.87573242 C-81.26801484 56.30685089 -77.10980613 51.67792639 -73 47 C-74.35428461 43.89587239 -75.77134253 42.08524276 -78.375 39.9375 C-82.16842582 36.73198519 -85.84782414 33.42663062 -89.5 30.0625 C-90.31090088 29.31697876 -90.31090088 29.31697876 -91.13818359 28.55639648 C-92.42620241 27.37174231 -93.71321131 26.18599024 -95 25 C-92.8003688 22.8003688 -91.87698501 22.53590468 -88.93359375 21.80859375 C-88.07338623 21.59098389 -87.21317871 21.37337402 -86.3269043 21.14916992 C-84.89664917 20.79689331 -84.89664917 20.79689331 -83.4375 20.4375 C-81.32764522 19.90293171 -79.21829852 19.36635546 -77.109375 18.828125 C-75.39137695 18.39016602 -75.39137695 18.39016602 -73.63867188 17.94335938 C-67.8283221 16.4369724 -62.0416891 14.84550432 -56.2539978 13.25485229 C-50.59150299 11.70022716 -44.92506171 10.15997749 -39.25958252 8.61627197 C-36.92257894 7.9788844 -34.58604265 7.3398014 -32.24951172 6.70068359 C-28.30312491 5.62230653 -24.35428744 4.55333029 -20.40371704 3.49038696 C-18.89181205 3.08208413 -17.38071005 2.67079554 -15.87045288 2.25643921 C-13.77243787 1.68132436 -11.67185236 1.1167628 -9.5703125 0.5546875 C-8.37164551 0.22968262 -7.17297852 -0.09532227 -5.93798828 -0.43017578 C-3 -1 -3 -1 0 0 Z " fill="#0369F8" transform="translate(412,100)"/>
<path d="M0 0 C-0.10973648 0.58769165 -0.21947296 1.1753833 -0.33253479 1.78088379 C-6.06454954 32.49077925 -11.70740308 63.21107848 -17 94 C-20.94136813 94 -21.66173572 92.78817655 -24.5 90.125 C-25.37398438 89.31417969 -26.24796875 88.50335938 -27.1484375 87.66796875 C-28.08945312 86.78753906 -29.03046875 85.90710938 -30 85 C-32.03568901 83.13922276 -34.08066075 81.28876277 -36.125 79.4375 C-37.75022984 77.95858587 -39.37531544 76.47951313 -41 75 C-45.2041085 76.59776095 -47.7681618 79.72974391 -50.6875 83 C-51.21859375 83.58523437 -51.7496875 84.17046875 -52.296875 84.7734375 C-53.87064588 86.5102738 -55.4363501 88.25405266 -57 90 C-57.77988281 90.86625 -58.55976563 91.7325 -59.36328125 92.625 C-60.79585281 94.21732817 -62.226826 95.81109569 -63.65625 97.40625 C-66.92735239 101.02626997 -70.244134 104.60331266 -73.55859375 108.18359375 C-76.56410722 111.43383097 -79.54559609 114.7030565 -82.5 118 C-87.42557438 123.49356855 -92.43521878 128.90774576 -97.44726562 134.32226562 C-99.9876648 137.06717492 -102.52532337 139.81461219 -105.0625 142.5625 C-105.55983643 143.10108643 -106.05717285 143.63967285 -106.56958008 144.19458008 C-110.33982014 148.279673 -114.09793507 152.37573863 -117.85131836 156.47631836 C-121.26441269 160.20320409 -124.69323664 163.91530832 -128.125 167.625 C-131.57036568 171.35010359 -134.99293868 175.09210179 -138.375 178.875 C-142.74737931 183.75432184 -147.21925091 188.53690633 -151.69555664 193.32055664 C-159.57070483 201.74006501 -167.35467132 210.23888373 -175.02734375 218.84375 C-176.96194032 220.95839813 -178.95769408 222.9896765 -181 225 C-184.93214301 223.41060574 -187.33020346 220.83657498 -190.25 217.8125 C-193.33632529 214.62359454 -196.43198804 211.58873177 -199.796875 208.6953125 C-204.41831556 204.69953208 -208.70615458 200.4047163 -213 196.0625 C-213.77472656 195.28326172 -214.54945313 194.50402344 -215.34765625 193.70117188 C-217.23410757 191.8030758 -219.11816245 189.90266851 -221 188 C-224.97121344 189.81520116 -227.45491968 192.39398025 -230.3125 195.625 C-230.80250488 196.16987061 -231.29250977 196.71474121 -231.79736328 197.27612305 C-233.20486958 198.84499801 -234.60389014 200.42098442 -236 202 C-236.59941406 202.67417969 -237.19882813 203.34835937 -237.81640625 204.04296875 C-240.02294536 206.54813722 -242.20369618 209.07510577 -244.38183594 211.60498047 C-246.00326058 213.48777672 -247.62616188 215.36928486 -249.25 217.25 C-249.81154785 217.9004126 -250.3730957 218.5508252 -250.95166016 219.22094727 C-254.48381726 223.29592943 -258.08029522 227.29876219 -261.75 231.25 C-265.07613047 234.84413522 -268.25428891 238.48832813 -271.3125 242.3125 C-275.65917019 247.72221453 -280.35179774 252.75824082 -285.12817383 257.78637695 C-285.70075928 258.39054443 -286.27334473 258.99471191 -286.86328125 259.6171875 C-287.62572144 260.41552002 -287.62572144 260.41552002 -288.40356445 261.22998047 C-290.15137477 263.02745054 -290.15137477 263.02745054 -291.44702148 265.6809082 C-295.67346016 269.520149 -300.48924581 268.61282151 -305.984375 268.48828125 C-307.15510559 268.48120651 -308.32583618 268.47413177 -309.53204346 268.46684265 C-313.27201173 268.43884981 -317.01048407 268.37609721 -320.75 268.3125 C-323.28513463 268.28742368 -325.82029273 268.26460936 -328.35546875 268.24414062 C-334.57082307 268.18900684 -340.78530467 268.10532977 -347 268 C-346.67 267.01 -346.34 266.02 -346 265 C-345.67 265.66 -345.34 266.32 -345 267 C-329.67040752 268.45092638 -329.67040752 268.45092638 -315.9140625 263.3203125 C-313.28826715 260.65266704 -311.10897689 257.70433314 -309.05371094 254.58154297 C-307.7039744 252.55568726 -306.14267324 250.79305882 -304.5 249 C-303.9740625 248.3915625 -303.448125 247.783125 -302.90625 247.15625 C-300.31714998 244.22759587 -297.65803766 241.36603327 -295 238.5 C-291.20672806 234.40953522 -287.46852759 230.28740873 -283.8203125 226.06640625 C-281.52695432 223.46300179 -279.16822333 220.92175018 -276.8125 218.375 C-272.79197343 214.02185489 -268.89613794 209.5808278 -265.0625 205.0625 C-260.66697966 199.88335934 -256.13925875 194.86034773 -251.50244141 189.89697266 C-247.35551324 185.43655888 -243.39507179 180.83490748 -239.45605469 176.19091797 C-234.4579271 170.31786996 -229.252484 164.64538635 -224 159 C-220.7155596 159.57945005 -219.12506104 160.51860416 -216.828125 162.9140625 C-215.96078735 163.80351562 -215.96078735 163.80351562 -215.07592773 164.7109375 C-214.47337158 165.34257812 -213.87081543 165.97421875 -213.25 166.625 C-211.99807543 167.91078664 -210.74418436 169.19466165 -209.48828125 170.4765625 C-208.88709473 171.09047852 -208.2859082 171.70439453 -207.66650391 172.33691406 C-205.67210448 174.32722301 -203.58914695 176.18159092 -201.4375 178 C-198.22175026 180.7194501 -195.69886721 183.76135935 -193 187 C-187.81483528 192.57548596 -187.81483528 192.57548596 -181 195 C-178.75960881 193.40950364 -178.75960881 193.40950364 -176.6875 191.0625 C-175.89730469 190.2271875 -175.10710937 189.391875 -174.29296875 188.53125 C-171.76276498 185.73811193 -169.25076336 182.93524093 -166.79296875 180.078125 C-159.91174853 172.10250592 -152.70756245 164.40710323 -145.55273438 156.67773438 C-143.01233518 153.93282506 -140.47469368 151.1853721 -137.9375 148.4375 C-137.43943848 147.89818848 -136.94137695 147.35887695 -136.42822266 146.80322266 C-133.13093596 143.23089348 -129.84448072 139.64889632 -126.5625 136.0625 C-123.04474964 132.21893774 -119.50900959 128.39349566 -115.95678711 124.58178711 C-109.85520401 118.03334226 -103.79526838 111.48142923 -98.1875 104.5 C-97.465625 103.675 -96.74375 102.85 -96 102 C-95.34 102 -94.68 102 -94 102 C-93.73445312 101.41226807 -93.46890625 100.82453613 -93.1953125 100.21899414 C-91.96641672 97.93765556 -90.66180976 96.36367355 -88.875 94.49609375 C-87.9459082 93.51672852 -87.9459082 93.51672852 -86.99804688 92.51757812 C-86.00901367 91.48793945 -86.00901367 91.48793945 -85 90.4375 C-83.63480116 88.99928193 -82.2702193 87.56047794 -80.90625 86.12109375 C-79.90464844 85.06704346 -79.90464844 85.06704346 -78.8828125 83.99169922 C-73.67423092 78.48189521 -68.59241727 72.85297877 -63.625 67.125 C-59.04646203 61.85860656 -54.27114045 56.77211968 -49.52880859 51.65380859 C-47.19743205 49.13181167 -44.88036456 46.59692417 -42.5625 44.0625 C-37.92471045 38.9951612 -33.24746811 33.96575773 -28.5637207 28.94091797 C-25.19356361 25.3152543 -21.91503071 21.62794932 -18.69140625 17.87109375 C-15.91147464 14.79583453 -12.91205592 11.94337882 -9.91796875 9.078125 C-8.10640296 7.11528794 -7.03937142 5.44169794 -6 3 C-6.56203125 3.16371094 -7.1240625 3.32742187 -7.703125 3.49609375 C-10.13059056 4.02864997 -12.26889681 4.09898681 -14.75 4.0625 C-15.54921875 4.05347656 -16.3484375 4.04445313 -17.171875 4.03515625 C-17.77515625 4.02355469 -18.3784375 4.01195313 -19 4 C-15.74582055 2.20432025 -12.53428471 1.22618137 -8.9375 0.3125 C-7.37322266 -0.09548828 -7.37322266 -0.09548828 -5.77734375 -0.51171875 C-3 -1 -3 -1 0 0 Z " fill="#0459C2" transform="translate(412,100)"/>
<path d="M0 0 C0 4.09455608 -1.64051458 5.33557943 -4.25 8.4375 C-5.03890625 9.38496094 -5.8278125 10.33242187 -6.640625 11.30859375 C-8.68373776 13.63923065 -10.79820754 15.82193376 -13 18 C-14.02323436 19.31558703 -15.03126968 20.64377755 -16 22 C-16.99 21.67 -17.98 21.34 -19 21 C-18.60208252 20.57702637 -18.20416504 20.15405273 -17.79418945 19.71826172 C-15.96521593 17.77213825 -14.13884621 15.82358916 -12.3125 13.875 C-11.68666016 13.20984375 -11.06082031 12.5446875 -10.41601562 11.859375 C-6.80763861 8.00540164 -3.33465583 4.09340161 0 0 Z " fill="#2A74D9" transform="translate(317,171)"/>
<path d="M0 0 C0.33 0.99 0.66 1.98 1 3 C0.01 4.32 -0.98 5.64 -2 7 C5.26 7 12.52 7 20 7 C20 7.33 20 7.66 20 8 C11.75 8 3.5 8 -5 8 C-3.95206337 3.80825346 -3.08236365 2.78407039 0 0 Z " fill="#0C66E5" transform="translate(72,359)"/>
<path d="M0 0 C-7.33041371 4.03172754 -13.71574711 5.29586617 -22 5 C-18.644661 2.76310733 -15.40369426 1.83264459 -11.5625 0.8125 C-10.55993164 0.52729492 -10.55993164 0.52729492 -9.53710938 0.23632812 C-6.06186139 -0.69706355 -3.41391321 -1.37080403 0 0 Z " fill="#2D78DC" transform="translate(386,107)"/>
<path d="M0 0 C1.32 1.32 2.64 2.64 4 4 C3.11054688 4.15275391 3.11054688 4.15275391 2.203125 4.30859375 C-0.36184111 5.11355652 -1.42743483 6.11566902 -3.25 8.0625 C-3.77078125 8.61035156 -4.2915625 9.15820312 -4.828125 9.72265625 C-5.21484375 10.14417969 -5.6015625 10.56570312 -6 11 C-6.99 10.67 -7.98 10.34 -9 10 C-6.03 6.7 -3.06 3.4 0 0 Z " fill="#2372DF" transform="translate(188,230)"/>
<path d="M0 0 C-0.33 1.65 -0.66 3.3 -1 5 C-1.66 4.01 -2.32 3.02 -3 2 C-3.969375 2.33 -4.93875 2.66 -5.9375 3 C-10.29766837 4.26873752 -14.49554566 4.18385528 -19 4 C-15.74582055 2.20432025 -12.53428471 1.22618137 -8.9375 0.3125 C-7.89464844 0.04050781 -6.85179687 -0.23148437 -5.77734375 -0.51171875 C-3 -1 -3 -1 0 0 Z " fill="#3579D1" transform="translate(412,100)"/>
<path d="M0 0 C0.66 0.33 1.32 0.66 2 1 C-1.86364295 5.48717034 -5.74790208 9.87675353 -10 14 C-10.66 13.67 -11.32 13.34 -12 13 C-8.04 8.71 -4.08 4.42 0 0 Z " fill="#DCEDF5" transform="translate(369,174)"/>
<path d="M0 0 C0.33 0.99 0.66 1.98 1 3 C0.01 3.33 -0.98 3.66 -2 4 C-2.59070014 5.94603274 -2.59070014 5.94603274 -3 8 C-3.66 8.66 -4.32 9.32 -5 10 C-5.99 9.67 -6.98 9.34 -8 9 C-5.36 6.03 -2.72 3.06 0 0 Z " fill="#2A76DF" transform="translate(178,241)"/>
<path d="M0 0 C0 3.60573896 -0.81707462 4.41336566 -3 7.1875 C-3.556875 7.90292969 -4.11375 8.61835938 -4.6875 9.35546875 C-5.120625 9.89816406 -5.55375 10.44085938 -6 11 C-6.99 10.67 -7.98 10.34 -9 10 C-6.03 6.7 -3.06 3.4 0 0 Z " fill="#2974D9" transform="translate(266,227)"/>
<path d="M0 0 C0.33 0.99 0.66 1.98 1 3 C-0.4375 5.1875 -0.4375 5.1875 -2 7 C-2.99 6.67 -3.98 6.34 -5 6 C-3.35 4.02 -1.7 2.04 0 0 Z " fill="#2070DD" transform="translate(72,359)"/>
<path d="M0 0 C0.33 0.66 0.66 1.32 1 2 C-0.98 4.97 -0.98 4.97 -3 8 C-3.99 7.67 -4.98 7.34 -6 7 C-4.02 4.69 -2.04 2.38 0 0 Z " fill="#2975DA" transform="translate(112,314)"/>
</svg>
