<?xml version="1.0" encoding="UTF-8"?>
<svg version="1.1" xmlns="http://www.w3.org/2000/svg" width="480" height="480" viewBox="0 0 480 480">
<path d="M0 0 C-1.30500967 12.08972373 -3.35454688 23.97862267 -5.59838867 35.92532349 C-6.40451889 40.21818404 -7.19995089 44.51300759 -7.99612427 48.807724 C-8.40224345 50.99781227 -8.80887975 53.18780471 -9.21603394 55.37770081 C-11.02232698 65.09591047 -12.79727662 74.81956559 -14.54727173 84.54806519 C-14.84611727 86.20784143 -15.14588284 87.86745231 -15.44662476 89.52688599 C-15.86236333 91.8209343 -16.27532877 94.11546467 -16.6875 96.41015625 C-16.91824219 97.69027588 -17.14898437 98.97039551 -17.38671875 100.28930664 C-18.03098098 104.18745222 -18.53491564 108.07693738 -19 112 C-23 112 -23 112 -25.296875 110.05859375 C-26.10640625 109.19363281 -26.9159375 108.32867187 -27.75 107.4375 C-31.98547975 103.02787424 -36.33889053 98.94992988 -41 95 C-42.33354912 93.85441781 -43.66689367 92.70859743 -45 91.5625 C-45.99 90.716875 -46.98 89.87125 -48 89 C-52.04442233 90.5723047 -54.5052613 93.45159973 -57.3125 96.625 C-57.98442383 97.36943359 -57.98442383 97.36943359 -58.66992188 98.12890625 C-61.2792675 101.02981949 -63.84281694 103.96920744 -66.40234375 106.9140625 C-69.92670406 110.94809065 -73.57039298 114.85781065 -77.25 118.75 C-81.85710332 123.64504727 -86.45545691 128.54673997 -91 133.5 C-91.804375 134.3765625 -92.60875 135.253125 -93.4375 136.15625 C-95.43250052 138.37021399 -97.39743596 140.60193656 -99.3515625 142.8515625 C-102.93005704 146.95260627 -106.63489763 150.92162067 -110.375 154.875 C-115.26111906 160.06276091 -120.09910078 165.28316493 -124.84765625 170.59765625 C-132.10362513 178.69642369 -139.51378031 186.65460333 -146.96557617 194.57299805 C-149.84553459 197.64436603 -152.6703218 200.74928267 -155.4296875 203.9296875 C-159.13199612 208.18734241 -162.9900801 212.28433085 -166.875 216.375 C-171.92100135 221.71145186 -176.92030581 227.07666174 -181.80859375 232.55859375 C-184.45007407 235.50141941 -187.12809771 238.40885796 -189.8125 241.3125 C-190.31434814 241.85559814 -190.81619629 242.39869629 -191.33325195 242.95825195 C-193.97133266 245.81130915 -196.61329433 248.66072202 -199.2578125 251.5078125 C-200.05674927 252.36959106 -200.05674927 252.36959106 -200.87182617 253.2487793 C-201.88111058 254.33738373 -202.89159993 255.42487287 -203.90356445 256.51098633 C-207.05731886 259.91462988 -210.05514063 263.41379195 -213 267 C-216.13879381 265.6124182 -218.22254795 264.00476592 -220.609375 261.55078125 C-221.61871094 260.52500977 -221.61871094 260.52500977 -222.6484375 259.47851562 C-223.34195313 258.76373047 -224.03546875 258.04894531 -224.75 257.3125 C-228.68018403 253.28144622 -232.5864823 249.2944968 -236.8671875 245.6328125 C-242.97070778 240.38657028 -248.48548551 234.52022191 -254.10546875 228.76757812 C-255.39517578 227.46143555 -255.39517578 227.46143555 -256.7109375 226.12890625 C-257.48743652 225.33556885 -258.26393555 224.54223145 -259.06396484 223.72485352 C-260.81672808 221.77826306 -260.81672808 221.77826306 -263 222 C-264.35097374 223.51151546 -265.62927345 225.08813313 -266.875 226.6875 C-270.46977839 231.18677102 -274.19499116 235.47875404 -278.125 239.6875 C-281.91924793 243.75458341 -285.663748 247.84523982 -289.30078125 252.0546875 C-291.29406428 254.3366529 -293.33493027 256.57228574 -295.375 258.8125 C-298.57652433 262.35160002 -301.63146063 265.97103106 -304.625 269.6875 C-307.12973231 272.78591453 -309.6339111 275.73296947 -312.5 278.5 C-315.28505422 281.18967565 -317.70498616 284.03968272 -320.125 287.0625 C-324.23134868 292.1726228 -328.59875855 296.96639101 -333.13134766 301.70141602 C-333.90357666 302.51630493 -333.90357666 302.51630493 -334.69140625 303.34765625 C-335.2017894 303.87767242 -335.71217255 304.4076886 -336.23802185 304.95376587 C-338.08414498 306.99010903 -338.08414498 306.99010903 -339.55345154 309.50984192 C-342.2526324 313.65714302 -344.29154198 316.52840757 -349.1865387 317.8795929 C-353.0749795 318.15599419 -356.89234787 318.12730756 -360.78125 317.9765625 C-362.20466108 317.95788092 -363.62813703 317.9436606 -365.05163574 317.9336853 C-368.77536604 317.89573319 -372.49511476 317.79773416 -376.21728516 317.68664551 C-380.02451715 317.58382988 -383.83240111 317.5385681 -387.640625 317.48828125 C-395.09555379 317.38144465 -402.54721642 317.21108498 -410 317 C-409.05776991 315.89592516 -408.11484287 314.79244508 -407.17163086 313.68920898 C-406.64661484 313.0746434 -406.12159882 312.46007782 -405.58067322 311.82688904 C-403.29570505 309.18599954 -400.9337246 306.62645113 -398.5625 304.0625 C-395.50161727 300.74242962 -392.45719255 297.41324152 -389.5 294 C-386.09255081 290.06832786 -382.56870327 286.24638756 -379.04467773 282.41967773 C-376.51259884 279.66526572 -374.00964732 276.89257501 -371.5625 274.0625 C-367.98197688 269.93244815 -364.26420238 265.9339593 -360.54980469 261.92480469 C-355.98400817 256.99351602 -351.48445753 252.00533826 -347 247 C-345.45847359 245.2915401 -343.91680647 243.58320716 -342.375 241.875 C-339.78609747 239.00091715 -337.21944454 236.11180399 -334.6875 233.1875 C-331.01760894 228.97011937 -327.21014304 224.88386015 -323.40966797 220.78466797 C-320.11282282 217.22266657 -316.87640018 213.61874791 -313.69921875 209.94921875 C-309.4253204 205.04651697 -305.03080529 200.24887834 -300.671875 195.421875 C-297.27655062 191.6569915 -293.88941658 187.88806449 -290.5625 184.0625 C-287.75177475 180.83440488 -284.884201 177.66261557 -282 174.5 C-275.87012634 167.77571435 -269.90926747 160.91816679 -264 154 C-259.08016955 158.04519393 -254.58452795 162.37480557 -250.11108398 166.90844727 C-247.5725148 169.46774299 -245.0055677 171.92667821 -242.25 174.25 C-237.41426998 178.35637405 -233.03797397 182.93970601 -228.62988281 187.49511719 C-224.39180657 191.81379076 -219.93992808 195.50683469 -215 199 C-203.21686078 186.20765004 -203.21686078 186.20765004 -191.6875 173.1875 C-188.01558017 168.96778794 -184.20627187 164.87896889 -180.40307617 160.77807617 C-177.72628745 157.88670849 -175.0770391 154.98128052 -172.5 152 C-167.97689941 146.77428184 -163.24286265 141.74066819 -158.54638672 136.67138672 C-152.0812425 129.68364164 -145.6708818 122.64755401 -139.3125 115.5625 C-136.72384964 112.69399555 -134.11410892 109.84527019 -131.5 107 C-125.94186487 100.94900633 -120.43258838 94.8550608 -114.96875 88.71875 C-109.57438708 82.68028405 -104.05596837 76.76592768 -98.49169922 70.88427734 C-96.65081919 68.93221304 -94.82423564 66.96761688 -93 65 C-92.33387695 64.29649414 -91.66775391 63.59298828 -90.98144531 62.86816406 C-90.01996582 61.82354004 -90.01996582 61.82354004 -89.0390625 60.7578125 C-88.16435303 59.82026123 -88.16435303 59.82026123 -87.27197266 58.86376953 C-85.62419595 56.82542413 -85.62419595 56.82542413 -86 53 C-87.29714999 51.39982681 -87.29714999 51.39982681 -89.1875 50 C-93.14659706 46.7279019 -96.97018367 43.3507911 -100.75 39.875 C-101.30453857 39.37226562 -101.85907715 38.86953125 -102.43041992 38.3515625 C-105.60699857 35.43454117 -108.39188301 32.45638805 -111 29 C-105.25680027 27.02027936 -99.50850969 25.25919426 -93.625 23.75 C-92.82537842 23.54165527 -92.02575684 23.33331055 -91.2019043 23.11865234 C-86.3400328 21.85400634 -81.47303771 20.60969279 -76.60546875 19.3671875 C-65.68590985 16.57104409 -54.80621753 13.70922298 -44 10.5 C-35.14130709 7.87417955 -26.24964917 5.4080828 -17.3125 3.0625 C-16.15943359 2.75570312 -15.00636719 2.44890625 -13.81835938 2.1328125 C-12.74005859 1.85308594 -11.66175781 1.57335937 -10.55078125 1.28515625 C-9.12245972 0.91209351 -9.12245972 0.91209351 -7.6652832 0.53149414 C-5.03370669 0.00672158 -2.67515267 -0.09979876 0 0 Z " fill="#0369F8" transform="translate(447,81)"/>
</svg>
